<?xml version="1.0" encoding="UTF-8"?>
<svg width="180px" height="80px" viewBox="0 0 180 80" version="1.1" xmlns="http://www.w3.org/2000/svg" xmlns:xlink="http://www.w3.org/1999/xlink">
    <title>SunPassLogo-Blue</title>
    <g id="Symbols" stroke="none" stroke-width="1" fill="none" fill-rule="evenodd">
        <g id="LatestNav" transform="translate(-50.000000, -34.000000)">
            <g id="SunPassLogo-Blue" transform="translate(50.000000, 34.000000)">
                <polygon id="Path" fill="#186298" fill-rule="nonzero" points="70.3251776 72.5874126 70.3251776 73.9300699 69.1938815 73.9300699 69.1938815 79.8153846 67.7601596 79.8153846 67.7601596 73.9300699 66.6400644 73.9300699 66.6400644 72.5874126"></polygon>
                <path d="M77.4097798,78.606993 C78.3618608,78.606993 78.4290665,76.7776224 78.4290665,76.2013986 C78.4290665,75.558042 78.3618608,73.7958042 77.4097798,73.7958042 C76.4576989,73.7958042 76.3904932,75.558042 76.3904932,76.2013986 C76.3904932,76.7776224 76.4576989,78.606993 77.4097798,78.606993 M79.952396,76.2013986 C79.952396,78.9146853 78.6866884,79.9328671 77.4097798,79.9328671 C76.1328713,79.9328671 74.8671637,78.9146853 74.8671637,76.2013986 C74.8671637,73.4825175 76.1384718,72.4699301 77.4097798,72.4699301 C78.6866884,72.4755245 79.952396,73.4881119 79.952396,76.2013986" id="Shape" fill="#186298" fill-rule="nonzero"></path>
                <polygon id="Path" fill="#186298" fill-rule="nonzero" points="86.2865344 72.5874126 86.2865344 78.4783217 87.7818615 78.4783217 87.7818615 79.8153846 84.858413 79.8153846 84.858413 72.5874126"></polygon>
                <polygon id="Path" fill="#186298" fill-rule="nonzero" points="94.0151913 72.5874126 94.0151913 78.4783217 95.5105184 78.4783217 95.5105184 79.8153846 92.5814694 79.8153846 92.5814694 72.5874126"></polygon>
                <path d="M108.2404,75.6755245 C108.929259,75.7034965 109.321292,75.4461538 109.321292,74.7076923 C109.321292,74.1874126 109.119675,73.7678322 108.503623,73.7678322 L108.2348,73.7678322 L108.2348,75.6755245 L108.2404,75.6755245 Z M106.812279,79.8153846 L106.812279,72.5818182 L108.296405,72.5818182 C108.598831,72.5818182 110.755014,72.3916084 110.755014,74.7244755 C110.755014,76.0727273 109.875739,76.8447552 108.554027,76.8447552 L108.2404,76.827972 L108.2404,79.8097902 L106.812279,79.8097902 L106.812279,79.8153846 Z" id="Shape" fill="#186298" fill-rule="nonzero"></path>
                <path d="M117.06115,75.6923077 L117.313172,75.7090909 C117.962827,75.7090909 118.220449,75.2671329 118.220449,74.6685315 C118.220449,74.1482517 117.974028,73.7286713 117.251566,73.7678322 L117.06115,73.7678322 L117.06115,75.6923077 Z M115.627428,79.8153846 L115.627428,72.5818182 L117.066751,72.5818182 C117.979628,72.5818182 119.609367,72.6769231 119.609367,74.6573427 C119.609367,75.4517483 119.29014,76.1286713 118.58448,76.5258741 L119.838986,79.8153846 L118.332458,79.8153846 L117.072351,76.4811189 L117.05555,76.4811189 L117.05555,79.8153846 L115.627428,79.8153846 Z" id="Shape" fill="#186298" fill-rule="nonzero"></path>
                <path d="M127.147608,78.606993 C128.099688,78.606993 128.166894,76.7776224 128.166894,76.2013986 C128.166894,75.558042 128.099688,73.7958042 127.147608,73.7958042 C126.195527,73.7958042 126.128321,75.558042 126.128321,76.2013986 C126.128321,76.7776224 126.195527,78.606993 127.147608,78.606993 M129.690224,76.2013986 C129.690224,78.9146853 128.424516,79.9328671 127.147608,79.9328671 C125.870699,79.9328671 124.604991,78.9146853 124.604991,76.2013986 C124.604991,73.4825175 125.876299,72.4699301 127.147608,72.4699301 C128.424516,72.4755245 129.690224,73.4881119 129.690224,76.2013986" id="Shape" fill="#186298" fill-rule="nonzero"></path>
                <path d="M139.239035,75.793007 L139.239035,76.358042 C139.239035,77.8909091 138.869404,79.9328671 136.920438,79.9328671 C134.971473,79.9328671 134.338619,77.8405594 134.338619,76.2405594 C134.338619,74.5734266 134.876264,72.4699301 136.920438,72.4699301 C138.023732,72.4699301 138.746193,73.158042 139.048619,74.1874126 L137.659701,74.7244755 C137.598096,74.3608392 137.474885,73.7902098 136.931639,73.7902098 C135.962757,73.7286713 135.867549,75.5188811 135.867549,76.1958042 C135.867549,76.9454545 135.917953,78.6013986 136.970843,78.6013986 C137.698904,78.6013986 137.816514,77.6223776 137.816514,77.1244755 L136.903637,77.1244755 L136.903637,75.7818182 L139.239035,75.7818182 L139.239035,75.793007 Z" id="Path" fill="#186298" fill-rule="nonzero"></path>
                <path d="M145.573174,75.6923077 L145.825195,75.7090909 C146.47485,75.7090909 146.738073,75.2671329 146.738073,74.6685315 C146.738073,74.1482517 146.491652,73.7286713 145.76919,73.7678322 L145.578774,73.7678322 L145.578774,75.6923077 L145.573174,75.6923077 Z M144.145052,79.8153846 L144.145052,72.5818182 L145.584375,72.5818182 C146.497252,72.5818182 148.132591,72.6769231 148.132591,74.6573427 C148.132591,75.4517483 147.813364,76.1286713 147.102104,76.5258741 L148.362211,79.8153846 L146.855683,79.8153846 L145.595576,76.4811189 L145.573174,76.4811189 L145.573174,79.8153846 L144.145052,79.8153846 Z" id="Shape" fill="#186298" fill-rule="nonzero"></path>
                <path d="M155.497217,75.5468531 L155.334803,74.4559441 L155.318002,74.4559441 L155.161189,75.5468531 L154.858763,77.4713287 L155.866849,77.4713287 L155.497217,75.5468531 Z M156.135672,72.5874126 L157.871819,79.820979 L156.342889,79.820979 L156.074066,78.6013986 L154.623543,78.6013986 L154.365921,79.820979 L152.9434,79.820979 L154.623543,72.5874126 L156.135672,72.5874126 Z" id="Shape" fill="#186298" fill-rule="nonzero"></path>
                <polygon id="Path" fill="#186298" fill-rule="nonzero" points="164.82201 72.5874126 165.516469 76.8503497 165.538871 76.8503497 166.11572 72.5874126 168.036683 72.5874126 168.792747 79.8153846 167.325423 79.8153846 166.983794 74.6125874 166.961392 74.6125874 166.731772 76.3972028 166.11572 79.8153846 165.012426 79.8153846 164.312367 76.358042 164.071546 74.7468531 164.071546 74.6125874 164.054745 74.6125874 163.841927 79.8153846 162.307396 79.8153846 162.94025 72.5874126"></polygon>
                <g id="Group" transform="translate(50.404284, 0.000000)">
                    <path d="M55.3495047,32.5034965 C55.0918828,32.5314685 54.8454619,32.565035 54.58784,32.593007 L54.58784,35.972028 C54.58784,35.972028 58.6481851,36.6657343 60.6195527,32.027972 C59.4154503,32.1174825 58.2281494,32.2181818 57.0688509,32.3300699 C56.4920018,32.386014 55.9151528,32.441958 55.3495047,32.5034965 Z" id="Path"></path>
                    <path d="M50.2082677,12.5090909 C49.4690049,11.5300699 48.6625363,10.5902098 47.7776611,9.70629371 C42.7036298,4.62657343 35.9606567,1.82937063 28.7808464,1.82377622 C13.9507858,1.82377622 1.88736043,13.8573427 1.87054752,28.6433566 C1.86495852,34.7692308 3.90913228,40.5818182 7.66145122,45.3090909 C10.4168854,43.5916084 14.6396444,41.2923077 20.5201442,38.9762238 C26.7310721,36.5314685 35.5630229,33.8125874 47.1224054,31.9888112 L47.1224054,12.5090909 L50.2082677,12.5090909 Z" id="Path"></path>
                    <path d="M55.0302776,42.3272727 L55.0302776,48.0895105 C77.9866289,38.2601399 106.397844,36.1230769 120.152613,35.6923077 C104.314467,32.8951049 89.2435857,31.4741259 75.2423956,31.4741259 C72.8397914,31.4741259 70.5099933,31.5188811 68.247401,31.5972028 C65.5311701,43.0153846 55.0302776,42.3272727 55.0302776,42.3272727 Z" id="Path"></path>
                    <path d="M21.2034023,40.413986 C15.5469215,42.634965 11.4137702,44.8671329 8.70313977,46.5454545 C8.17109454,46.8699301 7.69505408,47.1776224 7.27501838,47.4573427 C6.53015506,47.9552448 5.94770555,48.3692308 5.52766985,48.6825175 L30.5505968,64.9006993 C35.0085757,59.7090909 40.7154608,55.434965 47.1280059,51.9160839 L47.1280059,33.5944056 C35.8766495,35.3846154 27.2743183,38.0307692 21.2034023,40.413986 Z" id="Path"></path>
                    <path d="M128.267703,35.613986 C109.466905,31.8153846 91.6293885,29.8909091 75.2367951,29.8909091 C72.9462004,29.8909091 70.7284119,29.9300699 68.5610277,30.0027972 C66.0072106,30.0867133 63.5430012,30.220979 61.1627988,30.3944056 C59.8242851,30.4895105 54.9070671,30.965035 54.58784,31.0041958 C51.9892191,31.2895105 49.4970072,31.6251748 47.1280059,31.9944056 C35.5686233,33.8125874 26.7366726,36.5370629 20.5257447,38.9818182 C14.6508453,41.2923077 10.4224859,43.5972028 7.6670517,45.3146853 C3.91473275,40.5874126 1.870559,34.7748252 1.87615947,28.648951 C1.8929609,13.8629371 13.9507858,1.82937063 28.7864468,1.82937063 C35.9662571,1.83496503 42.7148308,4.63216783 47.7832616,9.71188811 C48.6681368,10.5958042 49.4690049,11.5356643 50.2138682,12.5146853 C52.011621,14.8867133 53.3949386,17.5104895 54.3078162,20.3076923 C54.4086247,20.6153846 54.5038328,20.9230769 54.58784,21.2307692 L54.58784,18.4335664 C54.8902657,18.4503497 55.17589,18.4895105 55.4503133,18.5286713 C54.6438447,16.4083916 53.5853548,14.3888112 52.2860443,12.5090909 C51.3115615,11.0993007 50.2082677,9.76223776 48.9705625,8.52027972 C43.5829045,3.12727273 36.4142952,0.151048951 28.752844,0.13986014 C13.0211068,0.13986014 0.21281809,12.9230769 0.190405189,28.6377622 C0.184815709,35.0937063 2.31859708,41.2195804 6.24453079,46.2265734 C4.56998845,47.3454545 3.72431657,48.0727273 3.64030943,48.151049 C3.45549372,48.3132867 3.35468515,48.5538462 3.37148658,48.8 C3.388288,49.0461538 3.52269943,49.2755245 3.72991704,49.4097902 L30.2649725,66.606993 C30.3993839,66.6909091 30.5449963,66.7356643 30.6962092,66.7356643 C30.9258287,66.7356643 31.1498477,66.634965 31.3066611,66.4503497 C35.52942,61.3762238 40.9730827,57.186014 47.1224054,53.7174825 C49.6482201,52.2909091 52.2972453,50.9874126 55.0246771,49.7958042 C82.153383,37.9524476 117.553992,37.1692308 126.318737,37.1692308 C127.461234,37.1692308 128.077287,37.1804196 128.082887,37.1804196 L128.099688,37.1804196 C128.502923,37.1804196 128.844552,36.8783217 128.889356,36.4755245 C128.93976,36.0727273 128.670937,35.6979021 128.267703,35.613986 Z M55.0302776,48.0895105 C52.3084462,49.2531469 49.6650215,50.5286713 47.1280059,51.9216783 C40.7154608,55.4405594 35.0085757,59.7146853 30.5505968,64.9062937 L5.52766985,48.6881119 C5.94770555,48.3748252 6.53015506,47.9552448 7.27501838,47.4629371 C7.69505408,47.1832168 8.17669502,46.8755245 8.70313977,46.551049 C11.4193706,44.8727273 15.5469215,42.6405594 21.2034023,40.4195804 C27.2687178,38.0363636 35.871049,35.3902098 47.1224054,33.6 C49.4914068,33.2251748 51.9836186,32.8895105 54.5822395,32.5986014 C54.8398614,32.5706294 55.0862823,32.5370629 55.3439042,32.5090909 C55.9095523,32.4475524 56.4864013,32.3916084 57.0632504,32.3356643 C58.2225489,32.2237762 59.4098498,32.1230769 60.6139522,32.0335664 C63.0613602,31.848951 65.6039763,31.6979021 68.2362001,31.6083916 C70.4987924,31.5300699 72.8285904,31.4853147 75.2311947,31.4853147 C89.2323848,31.4853147 104.308866,32.9006993 120.141412,35.7034965 C106.397844,36.1230769 77.9866289,38.2601399 55.0302776,48.0895105 Z" id="Shape" fill="#186298" fill-rule="nonzero"></path>
                    <g transform="translate(14.001190, 33.566434)" fill="#186298" fill-rule="nonzero" id="Path">
                        <path d="M11.6713921,14.0475524 C3.76912038,17.8573427 0.313626658,21.5608392 0.313626658,21.5608392 L3.75231895,23.8937063 C7.17981028,20.8335664 11.094543,18.1818182 15.0988834,16.3804196 L11.6713921,14.0475524 Z"></path>
                        <path d="M24.5132836,8.00559441 C21.1978018,9.16923077 18.2575519,10.3776224 15.6925339,11.5692308 L18.929609,13.9524476 C21.7802513,12.5818182 24.5636879,11.4909091 27.6271483,10.4 L24.5132836,8.00559441 Z"></path>
                        <path d="M64.6182926,0.212587413 C48.7577444,1.06853147 37.0807519,3.74825175 27.694354,6.97062937 L30.5393958,9.31468531 C41.9419651,5.34825175 54.2630124,3.24475524 65.7943925,2.18741259 L64.6182926,0.212587413 Z"></path>
                    </g>
                </g>
                <path d="M2.46420946,75.6755245 C3.15306801,75.7034965 3.55070181,75.4461538 3.55070181,74.7076923 C3.55070181,74.1874126 3.34908467,73.7678322 2.73303231,73.7678322 L2.46420946,73.7678322 L2.46420946,75.6755245 Z M1.03048759,79.8153846 L1.03048759,72.5818182 L2.52021422,72.5818182 C2.82263992,72.5818182 4.97322272,72.3916084 4.97322272,74.7244755 C4.97322272,76.0727273 4.09954846,76.8447552 2.77783612,76.8447552 L2.46420946,76.827972 L2.46420946,79.8097902 L1.03048759,79.8097902 L1.03048759,79.8153846 Z" id="Shape" fill="#186298" fill-rule="nonzero"></path>
                <path d="M11.2849592,75.6923077 L11.5369806,75.7090909 C12.1866359,75.7090909 12.4498582,75.2671329 12.4498582,74.6685315 C12.4498582,74.1482517 12.1978368,73.7286713 11.4753754,73.7678322 L11.2849592,73.7678322 L11.2849592,75.6923077 Z M9.85123736,79.8153846 L9.85123736,72.5818182 L11.2905597,72.5818182 C12.2034373,72.5818182 13.8387763,72.6769231 13.8387763,74.6573427 C13.8387763,75.4517483 13.5195492,76.1286713 12.8138892,76.5258741 L14.0683958,79.8153846 L12.5618678,79.8153846 L11.3017606,76.4811189 L11.2849592,76.4811189 L11.2849592,79.8153846 L9.85123736,79.8153846 Z" id="Shape" fill="#186298" fill-rule="nonzero"></path>
                <polygon id="Path" fill="#186298" fill-rule="nonzero" points="21.965067 72.5874126 21.965067 73.9300699 20.5145437 73.9300699 20.5145437 75.5020979 21.7914523 75.5020979 21.7914523 76.8503497 20.5145437 76.8503497 20.5145437 78.4783217 21.9874689 78.4783217 21.9874689 79.8153846 19.0864223 79.8153846 19.0864223 72.5874126"></polygon>
                <path d="M28.4280164,75.6755245 C29.1224754,75.7034965 29.5089083,75.4461538 29.5089083,74.7076923 C29.5089083,74.1874126 29.3128916,73.7678322 28.6912388,73.7678322 L28.4280164,73.7678322 L28.4280164,75.6755245 L28.4280164,75.6755245 Z M26.9942945,79.8153846 L26.9942945,72.5818182 L28.4784207,72.5818182 C28.7864468,72.5818182 30.9370296,72.3916084 30.9370296,74.7244755 C30.9370296,76.0727273 30.0633554,76.8447552 28.7360426,76.8447552 L28.4224159,76.827972 L28.4224159,79.8097902 L26.9942945,79.8097902 L26.9942945,79.8153846 Z" id="Shape" fill="#186298" fill-rule="nonzero"></path>
                <path d="M37.5847947,75.5468531 L37.4223809,74.4559441 L37.4055795,74.4559441 L37.2487661,75.5468531 L36.94074,77.4713287 L37.9488257,77.4713287 L37.5847947,75.5468531 Z M38.2176485,72.5874126 L39.9593965,79.820979 L38.4360671,79.820979 L38.1672442,78.6013986 L36.7167209,78.6013986 L36.459099,79.820979 L35.0365781,79.820979 L36.7167209,72.5874126 L38.2176485,72.5874126 Z" id="Shape" fill="#186298" fill-rule="nonzero"></path>
                <rect id="Rectangle" fill="#186298" fill-rule="nonzero" x="44.6749974" y="72.5874126" width="1.42812139" height="7.23356643"></rect>
                <path d="M54.1678043,76.2461538 C54.1678043,75.3230769 53.8765795,73.8685315 52.7004795,73.8685315 L52.7004795,78.5230769 C53.8541776,78.5902098 54.1678043,77.1524476 54.1678043,76.2461538 M51.2723582,79.8153846 L51.2723582,72.5818182 L52.35325,72.5818182 C52.6052714,72.5818182 55.5959257,72.2237762 55.5959257,76.2573427 C55.5959257,78.3216783 54.8006581,79.8153846 52.5492667,79.8153846 L51.2723582,79.8153846 Z" id="Shape" fill="#186298" fill-rule="nonzero"></path>
                <path d="M172.287444,15.9552448 L172.886695,15.9552448 C173.564353,15.9552448 174.141202,15.7034965 174.141202,15.0713287 C174.141202,14.6181818 173.816374,14.165035 172.886695,14.165035 C172.617873,14.165035 172.433057,14.1874126 172.287444,14.2097902 L172.287444,15.9552448 Z M172.287444,18.8083916 L171.464174,18.8083916 L171.464174,13.6503497 C171.895411,13.5888112 172.304246,13.5272727 172.925899,13.5272727 C173.709965,13.5272727 174.219609,13.6951049 174.527635,13.9188811 C174.835661,14.1426573 175.003675,14.4951049 175.003675,14.9874126 C175.003675,15.6643357 174.550037,16.0783217 173.989989,16.2405594 L173.989989,16.2797203 C174.443628,16.3636364 174.751654,16.7776224 174.852462,17.5328671 C174.975673,18.3328671 175.104484,18.6405594 175.188491,18.8083916 L174.320417,18.8083916 C174.197207,18.6461538 174.073996,18.1706294 173.973188,17.4937063 C173.849977,16.8391608 173.519549,16.593007 172.858693,16.593007 L172.287444,16.593007 L172.287444,18.8083916 L172.287444,18.8083916 Z M173.155518,12.2125874 C171.122545,12.2125874 169.453604,13.958042 169.453604,16.1174825 C169.453604,18.3160839 171.122545,20.0391608 173.17792,20.0391608 C175.233295,20.0559441 176.879835,18.3104895 176.879835,16.1342657 C176.879835,13.958042 175.233295,12.2125874 173.17792,12.2125874 L173.155518,12.2125874 L173.155518,12.2125874 Z M173.17232,11.4965035 C175.703735,11.4965035 177.719906,13.5496503 177.719906,16.1230769 C177.719906,18.7300699 175.703735,20.7664336 173.155518,20.7664336 C170.618503,20.7664336 168.568728,18.7300699 168.568728,16.1230769 C168.568728,13.5552448 170.618503,11.4965035 173.155518,11.4965035 L173.17232,11.4965035 L173.17232,11.4965035 Z" id="Shape" fill="#186298" fill-rule="nonzero"></path>
                <polygon id="Path" fill="#186298" fill-rule="nonzero" points="41.7235465 64.2741259 49.0265673 64.2517483 49.0265673 41.6727273 61.0059855 64.234965 62.1988869 64.3188811 62.1988869 18.4335664 56.0551647 18.4335664 56.0551647 40.1342657 43.5381007 17.5048951 41.6955441 17.5048951"></polygon>
                <path d="M38.4920718,57.0181818 L38.4920718,18.8699301 L32.5667682,18.8699301 L32.5667682,55.9216783 C32.5667682,58.7748252 29.7161259,58.7748252 29.7161259,58.7748252 C27.7447583,58.7748252 27.5207393,55.7090909 27.5207393,55.7090909 L27.5151388,18.8531469 L20.8505723,18.8531469 L20.8393713,56.7832168 C21.7186461,65.1188811 29.7161259,64.6937063 29.7161259,64.6937063 C35.0533795,64.565035 38.4248661,61.5496503 38.4920718,57.0181818" id="Path" fill="#186298" fill-rule="nonzero"></path>
                <path d="M15.0092758,12.951049 L16.9862438,19.3118881 C16.9862438,19.3118881 7.11260457,22.3776224 7.76786027,27.641958 C7.76786027,27.641958 7.1070041,32.2461538 13.6931639,39.4797203 C20.2793237,46.7132867 20.7161609,61.6223776 4.69319892,64.9118881 L1.62413805,58.7748252 C1.62413805,58.7748252 10.624103,57.0181818 10.4056845,51.0993007 C10.1816654,45.1804196 6.01491127,41.4545455 5.13563653,39.6979021 C4.26196227,37.9468531 -5.3988589,28.2965035 5.57807414,17.3370629 C5.57247366,17.3314685 8.64153453,14.2657343 15.0092758,12.951049" id="Path" fill="#186298" fill-rule="nonzero"></path>
                <path d="M151.011236,17.3314685 L152.747384,22.9146853 C152.747384,22.9146853 144.077847,25.6055944 144.654696,30.220979 C144.654696,30.220979 144.077847,34.2601399 149.857538,40.6097902 C155.637229,46.9594406 156.023662,60.0447552 141.960867,62.9314685 L139.267038,57.5384615 C139.267038,57.5384615 147.163709,56 146.967692,50.8027972 C146.777276,45.6111888 143.114565,42.3384615 142.3473,40.8 C141.574434,39.2615385 133.100914,30.7916084 142.733732,21.1748252 C142.728132,21.1804196 145.427561,18.4895105 151.011236,17.3314685" id="Path" fill="#186298" fill-rule="nonzero"></path>
                <path d="M166.373342,17.3314685 L168.109489,22.9146853 C168.109489,22.9146853 159.439952,25.6055944 160.016801,30.220979 C160.016801,30.220979 159.439952,34.2601399 165.219644,40.6097902 C170.999335,46.9594406 171.380167,60.0447552 157.317372,62.9314685 L154.623543,57.5384615 C154.623543,57.5384615 162.520214,56 162.329798,50.8027972 C162.139382,45.6111888 158.476671,42.3384615 157.709405,40.8 C156.93654,39.2615385 148.463019,30.7916084 158.090238,21.1748252 C158.090238,21.1804196 160.789667,18.4895105 166.373342,17.3314685" id="Path" fill="#186298" fill-rule="nonzero"></path>
                <path d="M123.64731,53.2867133 L126.229129,42.1034965 L129.135777,53.2867133 L123.64731,53.2867133 Z M126.721971,16.4587413 L124.745003,16.4587413 L117.722006,53.5104895 L114.652946,53.5104895 L113.331233,59.2111888 L116.187476,59.2111888 L115.750639,62.9370629 L121.675942,62.9370629 L122.768035,58.7692308 L129.572614,58.7692308 L130.675907,62.7188811 L137.698904,62.7188811 L126.721971,16.4587413 Z" id="Shape" fill="#186298" fill-rule="nonzero"></path>
                <path d="M112.020722,27.4237762 C111.359866,37.0685315 104.992124,35.972028 104.992124,35.972028 L104.992124,18.4335664 C112.457559,18.8699301 112.020722,27.4237762 112.020722,27.4237762 M108.94606,12.5090909 L97.5322902,12.5090909 L97.5322902,63.379021 L105.434562,63.379021 L105.434562,42.3272727 C105.434562,42.3272727 118.601281,43.2055944 119.262137,26.9818182 C119.262137,26.9818182 119.043719,14.4839161 108.94606,12.5090909" id="Shape" fill="#186298" fill-rule="nonzero"></path>
            </g>
        </g>
    </g>
</svg>